<svg width="26" height="26" viewBox="0 0 26 26" fill="none" xmlns="http://www.w3.org/2000/svg">
<path d="M12.9111 0.626465C6.10586 0.626465 0.569336 6.16298 0.569336 12.9682V18.0814C0.569336 19.3452 1.67639 20.3733 3.03769 20.3733H4.27187C4.59919 20.3733 4.91311 20.2433 5.14456 20.0118C5.37602 19.7804 5.50605 19.4664 5.50605 19.1391V12.7918C5.50605 12.4644 5.37602 12.1505 5.14456 11.9191C4.91311 11.6876 4.59919 11.5576 4.27187 11.5576H3.15123C3.83744 6.78131 7.94725 3.09482 12.9111 3.09482C17.875 3.09482 21.9848 6.78131 22.671 11.5576H21.5504C21.223 11.5576 20.9091 11.6876 20.6777 11.9191C20.4462 12.1505 20.3162 12.4644 20.3162 12.7918V20.3733C20.3162 21.7346 19.2091 22.8417 17.8478 22.8417H15.3795V21.6075H10.4428V25.31H17.8478C20.5704 25.31 22.7845 23.0959 22.7845 20.3733C24.1458 20.3733 25.2529 19.3452 25.2529 18.0814V12.9682C25.2529 6.16298 19.7164 0.626465 12.9111 0.626465Z" fill="white"/>
</svg>
